# xmcd
#
# Track frame offsets:
#	150
#	15947
#	28725
#	46425
#	62810
#	84072
#	99887
#	117708
#	136004
#	151428
#	168002
#	187242
#	200719
#	216421
#	233446
#	247417
#	262531
#	279437
#	294808
#	312375
#
# Disc length: 4545 seconds
#
# Revision: 2
# Processed by: cddbd v1.5.2PL0 Copyright (c) Steve Scherf et al.
# Submitted via: audiograbber 1.83.01
#
DISCID=1011bf14
DTITLE=Various Artist - So Country 2009 [Disc 2]
DYEAR=2009
DGENRE=Country
TTITLE0=Brooks and Dunn - Put A Girl In It
TTITLE1=Gretchen Wilson - California Girls (Album Version)
TTITLE2=Montgomery Gentry - Roll With Me
TTITLE3=Joe Nichols - It Ain't No Crime (Album Version)
TTITLE4=Martina McBride - Anyway (Album and Digital Single Version)
TTITLE5=Catherine Britt - Little Wildflower
TTITLE6=Keith Anderson - I Still Miss You
TTITLE7=Chuck Wicks - Stealing Cinderella
TTITLE8=Lonestar - Tequila Talkin'
TTITLE9=Phil Vassar - I Would (Album Version)
TTITLE10=Hal Ketchum - Mama Knows The Highway
TTITLE11=Sarah Johns - He Hates Me
TTITLE12=Miranda Lambert - More Like Her (Album Version)
TTITLE13=Lucinda Williams - Real Love
TTITLE14=Randy Houser - Anything Goes (Album Version)
TTITLE15=Jasmine Rae - Country Singer
TTITLE16=Steve Forde - Life's Got Something Good For Me
TTITLE17=Sinead Burgess - You Get Me
TTITLE18=Eli Young Band - We Could Be Forever (Album Version)
TTITLE19=Ryan Bingham - Southside Of Heaven (Album Version)
EXTD=
EXTT0=
EXTT1=
EXTT2=
EXTT3=
EXTT4=
EXTT5=
EXTT6=
EXTT7=
EXTT8=
EXTT9=
EXTT10=
EXTT11=
EXTT12=
EXTT13=
EXTT14=
EXTT15=
EXTT16=
EXTT17=
EXTT18=
EXTT19=
PLAYORDER=
